# xmcd
#
# Track frame offsets: 
#        150
#        15660
#        30312
#        51710
#        70662
#        81982
#        102732
#        120745
#        140677
#        160075
#        182617
#        201109
#
# Disc length: 2859 seconds
#
# Revision: 3
# Processed by: cddbd v1.5.2PL0 Copyright (c) Steve Scherf et al.
# Submitted via: ExactAudioCopy v0.99pb5
#
DISCID=a70b290c
DTITLE=Rita Chiarelli - Road Rockets (Re-Issue)
DYEAR=1992
DGENRE=Blues
TTITLE0=Love Overload
TTITLE1=Punish Me
TTITLE2=Serves You Right
TTITLE3=This Is My Life
TTITLE4=Highway 61 (Back Porch Version)
TTITLE5=Highway 61 Revisited
TTITLE6=I'm Confessin
TTITLE7=Love U 2 Much
TTITLE8=Strange Behavior
TTITLE9=Slow Dance
TTITLE10=Have You Seen My Shoes
TTITLE11=Tryin To Get To You
EXTD=
EXTT0=
EXTT1=
EXTT2=
EXTT3=
EXTT4=
EXTT5=
EXTT6=
EXTT7=
EXTT8=
EXTT9=
EXTT10=
EXTT11=
PLAYORDER=
